<svg width="80" height="31" viewBox="0 0 80 31" fill="none" xmlns="http://www.w3.org/2000/svg">
<path d="M15.472 15.126C14.632 15.126 13.876 14.982 13.204 14.694C12.532 14.394 12.004 13.974 11.62 13.434C11.236 12.894 11.044 12.264 11.044 11.544H13.24C13.288 12.084 13.498 12.528 13.87 12.876C14.254 13.224 14.788 13.398 15.472 13.398C16.18 13.398 16.732 13.23 17.128 12.894C17.524 12.546 17.722 12.102 17.722 11.562C17.722 11.142 17.596 10.8 17.344 10.536C17.104 10.272 16.798 10.068 16.426 9.924C16.066 9.78 15.562 9.624 14.914 9.456C14.098 9.24 13.432 9.024 12.916 8.808C12.412 8.58 11.98 8.232 11.62 7.764C11.26 7.296 11.08 6.672 11.08 5.892C11.08 5.172 11.26 4.542 11.62 4.002C11.98 3.462 12.484 3.048 13.132 2.76C13.78 2.472 14.53 2.328 15.382 2.328C16.594 2.328 17.584 2.634 18.352 3.246C19.132 3.846 19.564 4.674 19.648 5.73H17.38C17.344 5.274 17.128 4.884 16.732 4.56C16.336 4.236 15.814 4.074 15.166 4.074C14.578 4.074 14.098 4.224 13.726 4.524C13.354 4.824 13.168 5.256 13.168 5.82C13.168 6.204 13.282 6.522 13.51 6.774C13.75 7.014 14.05 7.206 14.41 7.35C14.77 7.494 15.262 7.65 15.886 7.818C16.714 8.046 17.386 8.274 17.902 8.502C18.43 8.73 18.874 9.084 19.234 9.564C19.606 10.032 19.792 10.662 19.792 11.454C19.792 12.09 19.618 12.69 19.27 13.254C18.934 13.818 18.436 14.274 17.776 14.622C17.128 14.958 16.36 15.126 15.472 15.126ZM31.3033 9.798C31.3033 10.17 31.2793 10.506 31.2313 10.806H23.6533C23.7133 11.598 24.0073 12.234 24.5353 12.714C25.0633 13.194 25.7113 13.434 26.4793 13.434C27.5833 13.434 28.3633 12.972 28.8193 12.048H31.0333C30.7333 12.96 30.1873 13.71 29.3953 14.298C28.6153 14.874 27.6433 15.162 26.4793 15.162C25.5313 15.162 24.6793 14.952 23.9233 14.532C23.1793 14.1 22.5913 13.5 22.1593 12.732C21.7393 11.952 21.5293 11.052 21.5293 10.032C21.5293 9.012 21.7333 8.118 22.1413 7.35C22.5613 6.57 23.1433 5.97 23.8873 5.55C24.6433 5.13 25.5073 4.92 26.4793 4.92C27.4153 4.92 28.2493 5.124 28.9813 5.532C29.7133 5.94 30.2833 6.516 30.6913 7.26C31.0993 7.992 31.3033 8.838 31.3033 9.798ZM29.1613 9.15C29.1493 8.394 28.8793 7.788 28.3513 7.332C27.8233 6.876 27.1693 6.648 26.3893 6.648C25.6813 6.648 25.0753 6.876 24.5713 7.332C24.0673 7.776 23.7673 8.382 23.6713 9.15H29.1613ZM35.3747 6.522C35.6747 6.018 36.0707 5.628 36.5627 5.352C37.0667 5.064 37.6607 4.92 38.3447 4.92V7.044H37.8227C37.0187 7.044 36.4067 7.248 35.9867 7.656C35.5787 8.064 35.3747 8.772 35.3747 9.78V15H33.3227V5.082H35.3747V6.522ZM41.2749 3.768C40.9029 3.768 40.5909 3.642 40.3389 3.39C40.0869 3.138 39.9609 2.826 39.9609 2.454C39.9609 2.082 40.0869 1.77 40.3389 1.518C40.5909 1.266 40.9029 1.14 41.2749 1.14C41.6349 1.14 41.9409 1.266 42.1929 1.518C42.4449 1.77 42.5709 2.082 42.5709 2.454C42.5709 2.826 42.4449 3.138 42.1929 3.39C41.9409 3.642 41.6349 3.768 41.2749 3.768ZM42.2829 5.082V15H40.2309V5.082H42.2829ZM54.067 9.798C54.067 10.17 54.043 10.506 53.995 10.806H46.417C46.477 11.598 46.771 12.234 47.299 12.714C47.827 13.194 48.475 13.434 49.243 13.434C50.347 13.434 51.127 12.972 51.583 12.048H53.797C53.497 12.96 52.951 13.71 52.159 14.298C51.379 14.874 50.407 15.162 49.243 15.162C48.295 15.162 47.443 14.952 46.687 14.532C45.943 14.1 45.355 13.5 44.923 12.732C44.503 11.952 44.293 11.052 44.293 10.032C44.293 9.012 44.497 8.118 44.905 7.35C45.325 6.57 45.907 5.97 46.651 5.55C47.407 5.13 48.271 4.92 49.243 4.92C50.179 4.92 51.013 5.124 51.745 5.532C52.477 5.94 53.047 6.516 53.455 7.26C53.863 7.992 54.067 8.838 54.067 9.798ZM51.925 9.15C51.913 8.394 51.643 7.788 51.115 7.332C50.587 6.876 49.933 6.648 49.153 6.648C48.445 6.648 47.839 6.876 47.335 7.332C46.831 7.776 46.531 8.382 46.435 9.15H51.925ZM59.6863 15.162C58.9063 15.162 58.2043 15.024 57.5803 14.748C56.9683 14.46 56.4823 14.076 56.1223 13.596C55.7623 13.104 55.5703 12.558 55.5463 11.958H57.6703C57.7063 12.378 57.9043 12.732 58.2643 13.02C58.6363 13.296 59.0983 13.434 59.6503 13.434C60.2263 13.434 60.6703 13.326 60.9823 13.11C61.3063 12.882 61.4683 12.594 61.4683 12.246C61.4683 11.874 61.2883 11.598 60.9283 11.418C60.5803 11.238 60.0223 11.04 59.2543 10.824C58.5103 10.62 57.9043 10.422 57.4363 10.23C56.9683 10.038 56.5603 9.744 56.2123 9.348C55.8763 8.952 55.7083 8.43 55.7083 7.782C55.7083 7.254 55.8643 6.774 56.1763 6.342C56.4883 5.898 56.9323 5.55 57.5083 5.298C58.0963 5.046 58.7683 4.92 59.5243 4.92C60.6523 4.92 61.5583 5.208 62.2423 5.784C62.9383 6.348 63.3103 7.122 63.3583 8.106H61.3063C61.2703 7.662 61.0903 7.308 60.7663 7.044C60.4423 6.78 60.0043 6.648 59.4523 6.648C58.9123 6.648 58.4983 6.75 58.2103 6.954C57.9223 7.158 57.7783 7.428 57.7783 7.764C57.7783 8.028 57.8743 8.25 58.0663 8.43C58.2583 8.61 58.4923 8.754 58.7683 8.862C59.0443 8.958 59.4523 9.084 59.9923 9.24C60.7123 9.432 61.3003 9.63 61.7563 9.834C62.2243 10.026 62.6263 10.314 62.9623 10.698C63.2983 11.082 63.4723 11.592 63.4843 12.228C63.4843 12.792 63.3283 13.296 63.0163 13.74C62.7043 14.184 62.2603 14.532 61.6843 14.784C61.1203 15.036 60.4543 15.162 59.6863 15.162Z" fill="#A96D6D"/>
<path d="M10.098 19.216C10.098 19.852 9.948 20.452 9.648 21.016C9.348 21.58 8.868 22.042 8.208 22.402C7.548 22.75 6.702 22.924 5.67 22.924H3.402V28H1.35V15.49H5.67C6.63 15.49 7.44 15.658 8.1 15.994C8.772 16.318 9.27 16.762 9.594 17.326C9.93 17.89 10.098 18.52 10.098 19.216ZM5.67 21.25C6.45 21.25 7.032 21.076 7.416 20.728C7.8 20.368 7.992 19.864 7.992 19.216C7.992 17.848 7.218 17.164 5.67 17.164H3.402V21.25H5.67ZM11.3711 22.996C11.3711 22 11.5751 21.118 11.9831 20.35C12.4031 19.582 12.9671 18.988 13.6751 18.568C14.3951 18.136 15.1871 17.92 16.0511 17.92C16.8311 17.92 17.5091 18.076 18.0851 18.388C18.6731 18.688 19.1411 19.066 19.4891 19.522V18.082H21.5591V28H19.4891V26.524C19.1411 26.992 18.6671 27.382 18.0671 27.694C17.4671 28.006 16.7831 28.162 16.0151 28.162C15.1631 28.162 14.3831 27.946 13.6751 27.514C12.9671 27.07 12.4031 26.458 11.9831 25.678C11.5751 24.886 11.3711 23.992 11.3711 22.996ZM19.4891 23.032C19.4891 22.348 19.3451 21.754 19.0571 21.25C18.7811 20.746 18.4151 20.362 17.9591 20.098C17.5031 19.834 17.0111 19.702 16.4831 19.702C15.9551 19.702 15.4631 19.834 15.0071 20.098C14.5511 20.35 14.1791 20.728 13.8911 21.232C13.6151 21.724 13.4771 22.312 13.4771 22.996C13.4771 23.68 13.6151 24.28 13.8911 24.796C14.1791 25.312 14.5511 25.708 15.0071 25.984C15.4751 26.248 15.9671 26.38 16.4831 26.38C17.0111 26.38 17.5031 26.248 17.9591 25.984C18.4151 25.72 18.7811 25.336 19.0571 24.832C19.3451 24.316 19.4891 23.716 19.4891 23.032ZM26.3063 19.522C26.6063 19.018 27.0023 18.628 27.4943 18.352C27.9983 18.064 28.5923 17.92 29.2763 17.92V20.044H28.7543C27.9503 20.044 27.3383 20.248 26.9183 20.656C26.5103 21.064 26.3063 21.772 26.3063 22.78V28H24.2543V18.082H26.3063V19.522ZM30.4785 22.996C30.4785 22 30.6825 21.118 31.0905 20.35C31.5105 19.582 32.0745 18.988 32.7825 18.568C33.5025 18.136 34.2945 17.92 35.1585 17.92C35.9385 17.92 36.6165 18.076 37.1925 18.388C37.7805 18.688 38.2485 19.066 38.5965 19.522V18.082H40.6665V28H38.5965V26.524C38.2485 26.992 37.7745 27.382 37.1745 27.694C36.5745 28.006 35.8905 28.162 35.1225 28.162C34.2705 28.162 33.4905 27.946 32.7825 27.514C32.0745 27.07 31.5105 26.458 31.0905 25.678C30.6825 24.886 30.4785 23.992 30.4785 22.996ZM38.5965 23.032C38.5965 22.348 38.4525 21.754 38.1645 21.25C37.8885 20.746 37.5225 20.362 37.0665 20.098C36.6105 19.834 36.1185 19.702 35.5905 19.702C35.0625 19.702 34.5705 19.834 34.1145 20.098C33.6585 20.35 33.2865 20.728 32.9985 21.232C32.7225 21.724 32.5845 22.312 32.5845 22.996C32.5845 23.68 32.7225 24.28 32.9985 24.796C33.2865 25.312 33.6585 25.708 34.1145 25.984C34.5825 26.248 35.0745 26.38 35.5905 26.38C36.1185 26.38 36.6105 26.248 37.0665 25.984C37.5225 25.72 37.8885 25.336 38.1645 24.832C38.4525 24.316 38.5965 23.716 38.5965 23.032ZM42.6777 22.996C42.6777 22 42.8817 21.118 43.2897 20.35C43.7097 19.582 44.2737 18.988 44.9817 18.568C45.7017 18.136 46.4997 17.92 47.3757 17.92C48.0237 17.92 48.6597 18.064 49.2837 18.352C49.9197 18.628 50.4237 19 50.7957 19.468V14.68H52.8657V28H50.7957V26.506C50.4597 26.986 49.9917 27.382 49.3917 27.694C48.8037 28.006 48.1257 28.162 47.3577 28.162C46.4937 28.162 45.7017 27.946 44.9817 27.514C44.2737 27.07 43.7097 26.458 43.2897 25.678C42.8817 24.886 42.6777 23.992 42.6777 22.996ZM50.7957 23.032C50.7957 22.348 50.6517 21.754 50.3637 21.25C50.0877 20.746 49.7217 20.362 49.2657 20.098C48.8097 19.834 48.3177 19.702 47.7897 19.702C47.2617 19.702 46.7697 19.834 46.3137 20.098C45.8577 20.35 45.4857 20.728 45.1977 21.232C44.9217 21.724 44.7837 22.312 44.7837 22.996C44.7837 23.68 44.9217 24.28 45.1977 24.796C45.4857 25.312 45.8577 25.708 46.3137 25.984C46.7817 26.248 47.2737 26.38 47.7897 26.38C48.3177 26.38 48.8097 26.248 49.2657 25.984C49.7217 25.72 50.0877 25.336 50.3637 24.832C50.6517 24.316 50.7957 23.716 50.7957 23.032ZM56.6049 16.768C56.2329 16.768 55.9209 16.642 55.6689 16.39C55.4169 16.138 55.2909 15.826 55.2909 15.454C55.2909 15.082 55.4169 14.77 55.6689 14.518C55.9209 14.266 56.2329 14.14 56.6049 14.14C56.9649 14.14 57.2709 14.266 57.5229 14.518C57.7749 14.77 57.9009 15.082 57.9009 15.454C57.9009 15.826 57.7749 16.138 57.5229 16.39C57.2709 16.642 56.9649 16.768 56.6049 16.768ZM57.6129 18.082V28H55.5609V18.082H57.6129ZM63.907 28.162C63.127 28.162 62.425 28.024 61.801 27.748C61.189 27.46 60.703 27.076 60.343 26.596C59.983 26.104 59.791 25.558 59.767 24.958H61.891C61.927 25.378 62.125 25.732 62.485 26.02C62.857 26.296 63.319 26.434 63.871 26.434C64.447 26.434 64.891 26.326 65.203 26.11C65.527 25.882 65.689 25.594 65.689 25.246C65.689 24.874 65.509 24.598 65.149 24.418C64.801 24.238 64.243 24.04 63.475 23.824C62.731 23.62 62.125 23.422 61.657 23.23C61.189 23.038 60.781 22.744 60.433 22.348C60.097 21.952 59.929 21.43 59.929 20.782C59.929 20.254 60.085 19.774 60.397 19.342C60.709 18.898 61.153 18.55 61.729 18.298C62.317 18.046 62.989 17.92 63.745 17.92C64.873 17.92 65.779 18.208 66.463 18.784C67.159 19.348 67.531 20.122 67.579 21.106H65.527C65.491 20.662 65.311 20.308 64.987 20.044C64.663 19.78 64.225 19.648 63.673 19.648C63.133 19.648 62.719 19.75 62.431 19.954C62.143 20.158 61.999 20.428 61.999 20.764C61.999 21.028 62.095 21.25 62.287 21.43C62.479 21.61 62.713 21.754 62.989 21.862C63.265 21.958 63.673 22.084 64.213 22.24C64.933 22.432 65.521 22.63 65.977 22.834C66.445 23.026 66.847 23.314 67.183 23.698C67.519 24.082 67.693 24.592 67.705 25.228C67.705 25.792 67.549 26.296 67.237 26.74C66.925 27.184 66.481 27.532 65.905 27.784C65.341 28.036 64.675 28.162 63.907 28.162ZM79.0123 22.798C79.0123 23.17 78.9883 23.506 78.9403 23.806H71.3623C71.4223 24.598 71.7163 25.234 72.2443 25.714C72.7723 26.194 73.4203 26.434 74.1883 26.434C75.2923 26.434 76.0723 25.972 76.5283 25.048H78.7423C78.4423 25.96 77.8963 26.71 77.1043 27.298C76.3243 27.874 75.3523 28.162 74.1883 28.162C73.2403 28.162 72.3883 27.952 71.6323 27.532C70.8883 27.1 70.3003 26.5 69.8683 25.732C69.4483 24.952 69.2383 24.052 69.2383 23.032C69.2383 22.012 69.4423 21.118 69.8503 20.35C70.2703 19.57 70.8523 18.97 71.5963 18.55C72.3523 18.13 73.2163 17.92 74.1883 17.92C75.1243 17.92 75.9583 18.124 76.6903 18.532C77.4223 18.94 77.9923 19.516 78.4003 20.26C78.8083 20.992 79.0123 21.838 79.0123 22.798ZM76.8703 22.15C76.8583 21.394 76.5883 20.788 76.0603 20.332C75.5323 19.876 74.8783 19.648 74.0983 19.648C73.3903 19.648 72.7843 19.876 72.2803 20.332C71.7763 20.776 71.4763 21.382 71.3803 22.15H76.8703Z" fill="#F68383"/>
</svg>
